<?xml version="1.0" encoding="UTF-8" standalone="no"?>
<!-- Created with Inkscape (http://www.inkscape.org/) -->

<svg
   width="985.00006"
   height="600"
   viewBox="0 0 260.6146 158.75"
   version="1.1"
   id="plane-drawing-nav"
   xml:space="preserve"
   sodipodi:docname="plane-drawing-nav.svg"
   inkscape:version="1.4.2 (ebf0e940d0, 2025-05-08)"
   xmlns:inkscape="http://www.inkscape.org/namespaces/inkscape"
   xmlns:sodipodi="http://sodipodi.sourceforge.net/DTD/sodipodi-0.dtd"
   xmlns:xlink="http://www.w3.org/1999/xlink"
   xmlns="http://www.w3.org/2000/svg"
   xmlns:svg="http://www.w3.org/2000/svg"><sodipodi:namedview
     id="namedview1"
     pagecolor="#ffffff"
     bordercolor="#000000"
     borderopacity="0.25"
     inkscape:showpageshadow="2"
     inkscape:pageopacity="0.0"
     inkscape:pagecheckerboard="0"
     inkscape:deskcolor="#d1d1d1"
     inkscape:zoom="2.579534"
     inkscape:cx="457.25313"
     inkscape:cy="328.54771"
     inkscape:window-width="1920"
     inkscape:window-height="1056"
     inkscape:window-x="0"
     inkscape:window-y="0"
     inkscape:window-maximized="0"
     inkscape:current-layer="plane-drawing-nav"
     showgrid="false" /><defs
     id="defs1" /><g
     id="drawing"><path
       style="display:inline;fill:none;fill-opacity:0.737255;stroke:#000000;stroke-width:0.3;stroke-linecap:round;stroke-linejoin:miter;stroke-dasharray:none;paint-order:normal"
       d="m 90.58,81.57 c 1.02,-0.14 2.03,-0.27 3.37,-0.33 1.34,-0.05 3.01,-0.03 4.89,0.29 1.88,0.32 3.98,0.92 5.87,1.23 1.89,0.31 3.58,0.32 4.91,0.35 1.33,0.03 2.3,0.09 3.27,0.14"
       id="wire-2" /><path
       style="display:inline;fill:none;fill-opacity:0.737255;stroke:#000000;stroke-width:0.3;stroke-linecap:round;stroke-linejoin:miter;stroke-dasharray:none;paint-order:normal"
       d="m 90.58,75.37 c 0.92,-0.12 1.83,-0.24 2.77,-0.61 0.94,-0.37 1.9,-1 2.98,-1.41 1.08,-0.41 2.28,-0.6 3.94,-0.63 1.66,-0.04 3.78,0.08 5.56,0.08 1.78,0 3.22,-0.13 4.17,-0.21 0.94,-0.08 1.39,-0.1 1.83,-0.13"
       id="wire-1" /><path
       d="M 242.18,80.58 H 72.96 v -2.91 h 169.22 v 2.91"
       style="display:inline;fill:#000000;stroke-width:0.256596"
       id="fuselage-1" /><path
       style="display:inline;fill:none;stroke:#000000;stroke-width:0.370417;stroke-linecap:round;stroke-linejoin:round;stroke-dasharray:none"
       d="m 87.89,82.15 c 0.17,0.98 0.34,1.95 1.49,2.78 1.15,0.83 3.27,1.52 5.37,1.92 2.1,0.4 4.19,0.51 7.21,0.57 3.02,0.06 6.98,0.06 11.46,-0.11 4.48,-0.17 9.47,-0.5 13.16,-2.02 3.68,-1.52 6.05,-4.24 8.05,-6.08 2,-1.85 3.63,-2.83 6.19,-3.19 2.56,-0.36 6.05,-0.11 9.29,0.61 3.23,0.72 6.2,1.91 8.26,2.77 2.06,0.86 3.22,1.4 4.81,1.66 1.6,0.25 3.64,0.22 5.08,0.2 1.43,-0.02 2.25,-0.02 3.72,-0.72 1.47,-0.71 3.6,-2.12 4.99,-2.86 1.39,-0.74 2.03,-0.79 4.06,-0.84 2.03,-0.04 5.44,-0.08 7.54,0.06 2.1,0.14 2.88,0.46 4.3,1.22 1.41,0.77 3.45,1.98 4.85,2.62 1.4,0.63 2.16,0.68 2.9,0.24 0.74,-0.44 1.47,-1.38 2.28,-1.85 0.81,-0.47 1.69,-0.48 2.4,-0.82 0.71,-0.34 1.23,-1.02 1.93,-1.39 0.7,-0.37 1.57,-0.44 2.65,-0.44 1.08,0 2.37,0.05 3.25,-0.03 0.88,-0.08 1.35,-0.3 2.81,-0.38 1.47,-0.08 3.94,-0.01 6.52,0.09 2.58,0.1 5.26,0.23 7.17,0.28 1.91,0.05 3.05,0.02 3.85,0.41 0.8,0.39 1.26,1.21 1.86,1.76 0.61,0.55 1.36,0.83 2.11,1.1"
       id="wire-3" /><path
       style="fill:none;stroke:#000000;stroke-width:0.370417;stroke-linecap:round;stroke-linejoin:round;stroke-dasharray:none"
       d="m 89.59,81.97 c 0.87,0.82 1.74,1.65 2.29,2.14 0.54,0.5 0.76,0.67 2.04,0.76 1.28,0.09 3.64,0.1 5.58,0.23 1.94,0.13 3.47,0.39 4.79,0.51 1.32,0.12 2.44,0.09 3.28,0.23 0.84,0.14 1.4,0.43 2.82,0.49 1.43,0.06 3.73,-0.1 6.88,-0.27 3.15,-0.16 7.09,-0.32 10.68,-1.86 3.59,-1.54 6.79,-4.45 10.3,-5.84 3.51,-1.39 7.32,-1.24 10.35,-1.1 3.03,0.14 5.29,0.27 7.55,0.64 2.26,0.36 4.54,0.95 6.64,1.7 2.1,0.75 4.03,1.66 5.8,2.23 1.77,0.58 3.37,0.82 4.28,0.95 0.9,0.13 1.11,0.13 1.29,-0.09 0.19,-0.22 0.36,-0.68 0.51,-1.23 0.15,-0.55 0.28,-1.19 0.79,-1.9 0.51,-0.71 1.39,-1.47 2.05,-1.92 0.66,-0.44 1.1,-0.57 2.37,-0.65 1.27,-0.09 3.37,-0.13 4.97,0.33 1.6,0.46 2.7,1.44 3.97,2.14 1.27,0.7 2.7,1.14 3.91,1.37 1.21,0.24 2.19,0.27 2.94,0.29 0.75,0.01 1.28,0 2.04,-0.51 0.76,-0.51 1.76,-1.5 2.43,-2.17 0.67,-0.67 1.02,-1.02 1.59,-1.24 0.57,-0.23 1.37,-0.33 2.14,-0.58 0.77,-0.25 1.53,-0.65 2.22,-0.99 0.69,-0.35 1.32,-0.65 2.61,-0.75 1.29,-0.1 3.23,-0.01 4.84,0.15 1.61,0.16 2.89,0.37 5.31,0.74 2.42,0.36 5.98,0.87 8.45,1.15 2.47,0.28 3.86,0.32 4.89,0.52 1.03,0.2 1.71,0.56 2.53,0.86 0.82,0.31 1.8,0.56 2.77,0.82"
       id="wire-4" /><path
       style="display:inline;fill:none;fill-opacity:0.737255;stroke:#000000;stroke-width:0.3;stroke-linecap:round;stroke-linejoin:miter;stroke-dasharray:none;paint-order:normal"
       d="m 78.58,76.8 c -0.07,-1.03 -0.13,-2.06 0.05,-3.05 0.18,-0.99 0.62,-1.93 0.94,-2.29 0.32,-0.36 0.53,-0.14 1.26,-0.02 0.73,0.11 1.97,0.11 2.63,0.17 0.66,0.06 0.75,0.18 0.74,0.6 -0.01,0.42 -0.11,1.15 0.22,1.74 0.33,0.59 1.09,1.05 1.85,1.5"
       id="wire-5" /><path
       style="display:inline;fill:none;fill-opacity:0.737255;stroke:#000000;stroke-width:0.3;stroke-linecap:round;stroke-linejoin:miter;stroke-dasharray:none;paint-order:normal"
       d="m 77.5,76.74 c 0,-1.06 0,-2.13 0.09,-3.25 0.09,-1.12 0.27,-2.29 0.72,-3.18 0.44,-0.89 1.15,-1.49 2.35,-1.51 1.2,-0.02 2.88,0.55 3.98,1.37 1.11,0.82 1.63,1.89 1.93,2.87 0.3,0.98 0.36,1.86 0.43,2.75"
       id="wire-6" /><path
       d="m 111.42,84.61 h 3.67 V 81.7 h -3.67 v 2.91"
       style="display:inline;fill:#000000;stroke-width:0.264583"
       id="bat-term-1" /><path
       d="M 142.87,87.37 V 68.32 h -27.78 v 19.05 h 27.78"
       id="bat"
       style="fill:#92a5ab;fill-opacity:1" /><path
       id="bat-term-2"
       style="display:inline;fill:#000000;fill-opacity:1;stroke-width:0.3;stroke-linecap:round"
       d="m 111.9,73.52 h 3.19 v -2.63 h -3.19 z" /><path
       d="m 85.172426,74.389725 h 6.614583 v 8.995834 h -6.614583 v -8.995834"
       id="receiver" /><path
       id="tail"
       style="display:inline;fill:#b8e5f1;fill-opacity:0.737255;stroke:#000000;stroke-width:0.263457;stroke-linecap:round;stroke-dasharray:none"
       d="m 223.98,48.99 h 28.24 v 62.18 h -28.24 z" /><path
       id="wing-1"
       style="display:inline;opacity:0.738044;fill:#b9e5f2;fill-opacity:1;stroke-width:0.265;stroke-linecap:round;stroke-dasharray:none"
       d="m 92.32,13.37 h 41.27 c 1.47,0 2.65,1.18 2.65,2.65 V 145.4 c 0,1.47 -1.18,2.65 -2.65,2.65 H 92.32 c -1.47,0 -2.65,-1.18 -2.65,-2.65 V 16.02 c 0,-1.47 1.18,-2.65 2.65,-2.65 z" /><path
       id="wing-2"
       style="display:inline;fill:#000000;stroke-width:0.264999;stroke-dasharray:none"
       d="m 136.25,17.62 v 125.94 h -0.26 V 17.62 h 0.26 M 89.94,17.35 V 144.09 H 89.68 V 17.35 h 0.26 m 46.31,112.98 H 89.68 v -0.26 h 46.57 v 0.26 m 0,-97.9 H 89.68 v -0.26 h 46.57 v 0.26 M 89.41,96.99 h 46.83 v 0.26 H 89.41 v -0.26 m 0.27,-37.83 h 46.57 v 0.26 H 89.68 v -0.26" /><path
       id="rudder"
       style="display:inline;fill:#ff0000;stroke:#000000;stroke-width:0.263457;stroke-linecap:round;stroke-dasharray:none"
       d="m 242.76,77.81 h 10.73 v 2.65 h -10.73 z" /><ellipse
       style="fill:#eff15f;fill-opacity:1;stroke-width:0;stroke-linecap:round;stroke-linejoin:round"
       id="prop-2"
       cx="59.264999"
       cy="66.559998"
       rx="2.115"
       ry="12.569964" /><ellipse
       style="fill:#eff15f;fill-opacity:1;stroke-width:0;stroke-linecap:round;stroke-linejoin:round"
       id="prop-1"
       cx="59.264999"
       cy="91.690002"
       rx="2.115"
       ry="12.569964" /><path
       d="M 79.14,82.17 H 61.41 v -6.09 h 17.73 v 6.09"
       id="motor-2"
       style="fill:#4b381a;fill-opacity:1" /><path
       d="m 61.41,78.73 v 0.79 h -6.09 v -0.79 h 0.72 5.36"
       id="motor-1" /><path
       id="tx-b"
       style="fill:#5556a9;stroke-width:0.32;stroke-linecap:round;stroke-linejoin:round"
       d="m 6.29,67.96 h 30.17 c 1.1,0 1.98,0.88 1.98,1.98 v 69.6 c 0,1.1 -0.88,1.98 -1.98,1.98 H 6.29 c -1.1,0 -1.98,-0.88 -1.98,-1.98 v -69.6 c 0,-1.1 0.88,-1.98 1.98,-1.98 z" /><path
       d="M 10.66,78.28 H 30.5 v 22.49 H 10.66 V 78.28"
       id="tx-2"
       style="stroke-width:0.264583" /><ellipse
       style="fill:#4d4d59;fill-opacity:1;stroke-width:0;stroke-linecap:round;stroke-linejoin:round"
       id="tx-1"
       cx="20.321693"
       cy="88.997223"
       rx="3.307292"
       ry="3.0427074" /><path
       d="m 18.34,105.27 v 5.82 h -7.67 v -5.82 h 7.67"
       id="tx-3"
       style="fill:#4d4d59;fill-opacity:1;stroke-width:0.264583" /><path
       d="m 31.3,105.27 v 5.56 h -7.41 v -5.56 h 7.41"
       id="tx-4"
       style="fill:#4d4d59;fill-opacity:1;stroke-width:0.264583" /><path
       id="tx-a"
       d="m 16.88,26.42 c -1.1,0 -1.98,0.88 -1.98,1.98 v 0.01 c 0,1.1 0.88,1.98 1.98,1.98 h 2.78 V 43.88 H 18.6 V 54.2 h -1.32 v 13.76 h 6.09 V 54.2 H 21.78 V 43.88 H 20.72 V 30.39 h 2.78 c 1.1,0 1.98,-0.88 1.98,-1.98 V 28.4 c 0,-1.1 -0.88,-1.98 -1.98,-1.98 z"
       style="fill:#4d4d59;fill-opacity:1;stroke-width:0.264583" /><ellipse
       style="opacity:1;fill:#bd6c1b;fill-opacity:1;stroke-width:0;stroke-linecap:round;stroke-linejoin:round"
       id="actuator"
       cx="240.03999"
       cy="79.126335"
       rx="3.9174187"
       ry="3.3663352" /></g><a
     id="a5"
     xlink:href="__TRANSMITTER_URL_PLACEHOLDER__"><g
       id="transmitter-bb"
       style="display:inline"
       transform="matrix(4.0267703,0,0,3.8177147,0,-69.00129)"><text
         xml:space="preserve"
         style="font-style:normal;font-variant:normal;font-weight:normal;font-stretch:normal;font-size:1.97945px;font-family:sans-serif;-inkscape-font-specification:sans-serif;text-align:start;letter-spacing:0px;word-spacing:-1.436px;writing-mode:lr-tb;direction:ltr;text-anchor:start;fill:#eff15f;fill-opacity:1;stroke-width:0;stroke-linecap:round;stroke-linejoin:round"
         x="2.8039124"
         y="56.129417"
         id="tx-t"
         transform="scale(0.97369582,1.0270148)"><tspan
           id="tspan1"
           style="font-style:normal;font-variant:normal;font-weight:normal;font-stretch:normal;font-size:1.97945px;font-family:sans-serif;-inkscape-font-specification:sans-serif;fill:#22cd3a;fill-opacity:1;stroke-width:0"
           x="2.8039124"
           y="56.129417">пульт</tspan></text><rect
         style="opacity:0.54;fill:#30e36b;fill-opacity:1;stroke-width:0;stroke-linecap:round;stroke-linejoin:round"
         id="rect1"
         width="10.374903"
         height="31.334126"
         x="0"
         y="24.488388"
         ry="2.2513328" /></g></a><a
     id="a2"
     xlink:href="__PROP_URL_PLACEHOLDER__"><g
       id="prop-bb"
       style="display:inline"><rect
         style="opacity:0.54;fill:#30e36b;fill-opacity:1;stroke-width:0;stroke-linecap:round;stroke-linejoin:round"
         id="rect2"
         width="8.1698875"
         height="51.889828"
         x="53.325081"
         y="53.435482"
         ry="4" /><text
         xml:space="preserve"
         style="font-style:normal;font-variant:normal;font-weight:normal;font-stretch:normal;font-size:7.76111px;font-family:sans-serif;-inkscape-font-specification:sans-serif;text-align:start;letter-spacing:0px;word-spacing:-5.63034px;writing-mode:lr-tb;direction:ltr;text-anchor:start;display:inline;fill:#eff15f;fill-opacity:1;stroke-width:0;stroke-linecap:round;stroke-linejoin:round"
         x="47.977283"
         y="112.02555"
         id="prop-t"><tspan
           id="tspan1-8"
           style="font-style:normal;font-variant:normal;font-weight:normal;font-stretch:normal;font-size:7.76113px;font-family:sans-serif;-inkscape-font-specification:sans-serif;fill:#22cd3a;fill-opacity:1;stroke-width:0"
           x="47.977283"
           y="112.02555">винт</tspan></text></g></a><a
     id="a3"
     xlink:href="__MOTOR_URL_PLACEHOLDER__"><g
       id="motor-bb"
       style="display:inline"><rect
         style="opacity:0.54;fill:#30e36b;fill-opacity:1;stroke-width:0;stroke-linecap:round;stroke-linejoin:round"
         id="rect3"
         width="16.270729"
         height="15.440791"
         x="62.325554"
         y="71.503632"
         ry="6.4000001" /><text
         xml:space="preserve"
         style="font-style:normal;font-variant:normal;font-weight:normal;font-stretch:normal;font-size:7.76111px;font-family:sans-serif;-inkscape-font-specification:sans-serif;text-align:start;letter-spacing:0px;word-spacing:-5.63034px;writing-mode:lr-tb;direction:ltr;text-anchor:start;display:inline;fill:#eff15f;fill-opacity:1;stroke-width:0;stroke-linecap:round;stroke-linejoin:round"
         x="58.976559"
         y="92.936737"
         id="motor-t"><tspan
           id="tspan1-8-5"
           style="font-style:normal;font-variant:normal;font-weight:normal;font-stretch:normal;font-size:7.76111px;font-family:sans-serif;-inkscape-font-specification:sans-serif;fill:#22cd3a;fill-opacity:1;stroke-width:0"
           x="58.976559"
           y="92.936737">мотор</tspan></text></g></a><a
     id="a4"
     xlink:href="__RECEIVER_URL_PLACEHOLDER__"><g
       id="receiver-bb"
       style="display:inline"><rect
         style="opacity:0.54;fill:#30e36b;fill-opacity:1;stroke-width:0;stroke-linecap:round;stroke-linejoin:round"
         id="rect4"
         width="13.203216"
         height="17.385971"
         x="81.870224"
         y="70.08297"
         ry="7.5" /><text
         xml:space="preserve"
         style="font-style:normal;font-variant:normal;font-weight:normal;font-stretch:normal;font-size:7.76111px;font-family:sans-serif;-inkscape-font-specification:sans-serif;text-align:start;letter-spacing:0px;word-spacing:-5.63034px;writing-mode:lr-tb;direction:ltr;text-anchor:start;display:inline;fill:#eff15f;fill-opacity:1;stroke-width:0;stroke-linecap:round;stroke-linejoin:round"
         x="69.80249"
         y="94.032822"
         id="receiver-t"><tspan
           id="tspan1-8-5-4"
           style="font-style:normal;font-variant:normal;font-weight:normal;font-stretch:normal;font-size:7.76111px;font-family:sans-serif;-inkscape-font-specification:sans-serif;fill:#22cd3a;fill-opacity:1;stroke-width:0"
           x="69.80249"
           y="94.032822">приемник</tspan></text></g></a><a
     id="a1"
     xlink:href="__BATTERY_URL_PLACEHOLDER__"><g
       id="battery-bb"><rect
         style="opacity:0.54;fill:#30e36b;fill-opacity:1;stroke-width:0;stroke-linecap:round;stroke-linejoin:round"
         id="rect5"
         width="34.883465"
         height="23.458042"
         x="110.77789"
         y="65.941803"
         ry="6.8000002" /><text
         xml:space="preserve"
         style="font-style:normal;font-variant:normal;font-weight:normal;font-stretch:normal;font-size:7.76111px;font-family:sans-serif;-inkscape-font-specification:sans-serif;text-align:start;letter-spacing:0px;word-spacing:-5.63034px;writing-mode:lr-tb;direction:ltr;text-anchor:start;display:inline;fill:#eff15f;fill-opacity:1;stroke-width:0;stroke-linecap:round;stroke-linejoin:round"
         x="114.74941"
         y="96.418938"
         id="battery-t"><tspan
           id="tspan1-8-5-44"
           style="font-style:normal;font-variant:normal;font-weight:normal;font-stretch:normal;font-size:7.76111px;font-family:sans-serif;-inkscape-font-specification:sans-serif;fill:#22cd3a;fill-opacity:1;stroke-width:0"
           x="114.74941"
           y="96.418938">батарея</tspan></text></g></a><a
     id="a6"
     xlink:href="__AIRFRAME_URL_PLACEHOLDER__"><g
       id="fuselage-bb"><rect
         style="opacity:0.54;fill:#30e36b;fill-opacity:1;stroke-width:0;stroke-linecap:round;stroke-linejoin:round"
         id="rect6"
         width="65.558205"
         height="10.858078"
         x="152.3204"
         y="73.343246"
         ry="5.4000001" /><text
         xml:space="preserve"
         style="font-style:normal;font-variant:normal;font-weight:normal;font-stretch:normal;font-size:7.76111px;font-family:sans-serif;-inkscape-font-specification:sans-serif;text-align:start;letter-spacing:0px;word-spacing:-5.63034px;writing-mode:lr-tb;direction:ltr;text-anchor:start;display:inline;fill:#eff15f;fill-opacity:1;stroke-width:0;stroke-linecap:round;stroke-linejoin:round"
         x="171.48863"
         y="91.879166"
         id="fuselage-t"><tspan
           id="tspan1-8-5-44-1"
           style="font-style:normal;font-variant:normal;font-weight:normal;font-stretch:normal;font-size:7.76111px;font-family:sans-serif;-inkscape-font-specification:sans-serif;fill:#22cd3a;fill-opacity:1;stroke-width:0"
           x="171.48863"
           y="91.879166">планер</tspan></text></g></a><a
     id="a7"
     xlink:href="__ACTUATOR_URL_PLACEHOLDER__"><g
       id="actuator-bb"
       style="display:inline"><rect
         style="opacity:0.54;fill:#30e36b;fill-opacity:1;stroke-width:0;stroke-linecap:round;stroke-linejoin:round"
         id="rect7"
         width="21.15099"
         height="10.363136"
         x="235.25168"
         y="74.028465"
         ry="5" /><text
         xml:space="preserve"
         style="font-style:normal;font-variant:normal;font-weight:normal;font-stretch:normal;font-size:7.76111px;font-family:sans-serif;-inkscape-font-specification:sans-serif;text-align:start;letter-spacing:0px;word-spacing:-5.63034px;writing-mode:lr-tb;direction:ltr;text-anchor:start;display:inline;fill:#eff15f;fill-opacity:1;stroke-width:0;stroke-linecap:round;stroke-linejoin:round"
         x="227.36208"
         y="90.648323"
         id="actuator-t"><tspan
           id="tspan1-8-5-44-1-1"
           style="font-style:normal;font-variant:normal;font-weight:normal;font-stretch:normal;font-size:7.76111px;font-family:sans-serif;-inkscape-font-specification:sans-serif;fill:#22cd3a;fill-opacity:1;stroke-width:0"
           x="227.36208"
           y="90.648323">актуатор</tspan></text></g></a></svg>
