<?xml version="1.0" encoding="UTF-8" standalone="no"?>
<!-- Created with Inkscape (http://www.inkscape.org/) -->

<svg
   width="985.00006"
   height="530"
   viewBox="0 0 260.6146 140.22917"
   version="1.1"
   id="plane-drawing-nav"
   xml:space="preserve"
   sodipodi:docname="plane-drawing-nav.svg"
   inkscape:version="1.4.2 (ebf0e940d0, 2025-05-08)"
   inkscape:export-filename="plane-drawing-nav.svg"
   inkscape:export-xdpi="96"
   inkscape:export-ydpi="96"
   xmlns:inkscape="http://www.inkscape.org/namespaces/inkscape"
   xmlns:sodipodi="http://sodipodi.sourceforge.net/DTD/sodipodi-0.dtd"
   xmlns:xlink="http://www.w3.org/1999/xlink"
   xmlns="http://www.w3.org/2000/svg"
   xmlns:svg="http://www.w3.org/2000/svg"><sodipodi:namedview
     id="namedview1"
     pagecolor="#ffffff"
     bordercolor="#000000"
     borderopacity="0.25"
     inkscape:showpageshadow="2"
     inkscape:pageopacity="0.0"
     inkscape:pagecheckerboard="0"
     inkscape:deskcolor="#d1d1d1"
     inkscape:zoom="0.60296205"
     inkscape:cx="445.30166"
     inkscape:cy="372.32857"
     inkscape:window-width="1920"
     inkscape:window-height="1056"
     inkscape:window-x="0"
     inkscape:window-y="0"
     inkscape:window-maximized="0"
     inkscape:current-layer="plane-drawing-nav"
     showgrid="false" /><defs
     id="defs1" /><g
     id="drawing"><path
       style="display:inline;fill:none;fill-opacity:0.737255;paint-order:normal;stroke:#000000;stroke-dasharray:none;stroke-linecap:round;stroke-linejoin:miter;stroke-width:0.3"
       d="M 90.58 70.8458 C 91.6 70.7058 92.61 70.5758 93.95 70.5158 C 95.29 70.4658 96.96 70.4858 98.84 70.8058 C 100.72 71.1258 102.82 71.7258 104.71 72.0358 C 106.6 72.3458 108.29 72.3558 109.62 72.3858 C 110.95 72.4158 111.92 72.4758 112.89 72.5258"
       id="wire-2" /><path
       style="display:inline;fill:none;fill-opacity:0.737255;paint-order:normal;stroke:#000000;stroke-dasharray:none;stroke-linecap:round;stroke-linejoin:miter;stroke-width:0.3"
       d="M 90.58 64.6458 C 91.5 64.5258 92.41 64.4058 93.35 64.0358 C 94.29 63.6658 95.25 63.0358 96.33 62.6258 C 97.41 62.2158 98.61 62.0258 100.27 61.9958 C 101.93 61.9558 104.05 62.0758 105.83 62.0758 C 107.61 62.0758 109.05 61.9458 110 61.8658 C 110.94 61.7858 111.39 61.7658 111.83 61.7358"
       id="wire-1" /><path
       d="M 242.18 69.8558 L 72.96 69.8558 L 72.96 66.9458 L 242.18 66.9458 Z"
       style="display:inline;fill:#000000;stroke-width:0.256596"
       id="fuselage-1" /><path
       style="display:inline;fill:none;stroke:#000000;stroke-dasharray:none;stroke-linecap:round;stroke-linejoin:round;stroke-width:0.370417"
       d="M 87.89 71.4258 C 88.06 72.4058 88.23 73.3758 89.38 74.2058 C 90.53 75.0358 92.65 75.7258 94.75 76.1258 C 96.85 76.5258 98.94 76.6358 101.96 76.6958 C 104.98 76.7558 108.94 76.7558 113.42 76.5858 C 117.9 76.4158 122.89 76.0858 126.58 74.5658 C 130.26 73.0458 132.63 70.3258 134.63 68.4858 C 136.63 66.6358 138.26 65.6558 140.82 65.2958 C 143.38 64.9358 146.87 65.1858 150.11 65.9058 C 153.34 66.6258 156.31 67.8158 158.37 68.6758 C 160.43 69.5358 161.59 70.0758 163.18 70.3358 C 164.78 70.5858 166.82 70.5558 168.26 70.5358 C 169.69 70.5158 170.51 70.5158 171.98 69.8158 C 173.45 69.1058 175.58 67.6958 176.97 66.9558 C 178.36 66.2158 179 66.1658 181.03 66.1158 C 183.06 66.0758 186.47 66.0358 188.57 66.1758 C 190.67 66.3158 191.45 66.6358 192.87 67.3958 C 194.28 68.1658 196.32 69.3758 197.72 70.0158 C 199.12 70.6458 199.88 70.6958 200.62 70.2558 C 201.36 69.8158 202.09 68.8758 202.9 68.4058 C 203.71 67.9358 204.59 67.9258 205.3 67.5858 C 206.01 67.2458 206.53 66.5658 207.23 66.1958 C 207.93 65.8258 208.8 65.7558 209.88 65.7558 C 210.96 65.7558 212.25 65.8058 213.13 65.7258 C 214.01 65.6458 214.48 65.4258 215.94 65.3458 C 217.41 65.2658 219.88 65.3358 222.46 65.4358 C 225.04 65.5358 227.72 65.6658 229.63 65.7158 C 231.54 65.7658 232.68 65.7358 233.48 66.1258 C 234.28 66.5158 234.74 67.3358 235.34 67.8858 C 235.95 68.4358 236.7 68.7158 237.45 68.9858"
       id="wire-3" /><path
       style="fill:none;stroke:#000000;stroke-dasharray:none;stroke-linecap:round;stroke-linejoin:round;stroke-width:0.370417"
       d="M 89.59 71.2458 C 90.46 72.0658 91.33 72.8958 91.88 73.3858 C 92.42 73.8858 92.64 74.0558 93.92 74.1458 C 95.2 74.2358 97.56 74.2458 99.5 74.3758 C 101.44 74.5058 102.97 74.7658 104.29 74.8858 C 105.61 75.0058 106.73 74.9758 107.57 75.1158 C 108.41 75.2558 108.97 75.5458 110.39 75.6058 C 111.82 75.6658 114.12 75.5058 117.27 75.3358 C 120.42 75.1758 124.36 75.0158 127.95 73.4758 C 131.54 71.9358 134.74 69.0258 138.25 67.6358 C 141.76 66.2458 145.57 66.3958 148.6 66.5358 C 151.63 66.6758 153.89 66.8058 156.15 67.1758 C 158.41 67.5358 160.69 68.1258 162.79 68.8758 C 164.89 69.6258 166.82 70.5358 168.59 71.1058 C 170.36 71.6858 171.96 71.9258 172.87 72.0558 C 173.77 72.1858 173.98 72.1858 174.16 71.9658 C 174.35 71.7458 174.52 71.2858 174.67 70.7358 C 174.82 70.1858 174.95 69.5458 175.46 68.8358 C 175.97 68.1258 176.85 67.3658 177.51 66.9158 C 178.17 66.4758 178.61 66.3458 179.88 66.2658 C 181.15 66.1758 183.25 66.1358 184.85 66.5958 C 186.45 67.0558 187.55 68.0358 188.82 68.7358 C 190.09 69.4358 191.52 69.8758 192.73 70.1058 C 193.94 70.3458 194.92 70.3758 195.67 70.3958 C 196.42 70.4058 196.95 70.3958 197.71 69.8858 C 198.47 69.3758 199.47 68.3858 200.14 67.7158 C 200.81 67.0458 201.16 66.6958 201.73 66.4758 C 202.3 66.2458 203.1 66.1458 203.87 65.8958 C 204.64 65.6458 205.4 65.2458 206.09 64.9058 C 206.78 64.5558 207.41 64.2558 208.7 64.1558 C 209.99 64.0558 211.93 64.1458 213.54 64.3058 C 215.15 64.4658 216.43 64.6758 218.85 65.0458 C 221.27 65.4058 224.83 65.9158 227.3 66.1958 C 229.77 66.4758 231.16 66.5158 232.19 66.7158 C 233.22 66.9158 233.9 67.2758 234.72 67.5758 C 235.54 67.8858 236.52 68.1358 237.49 68.3958"
       id="wire-4" /><path
       style="display:inline;fill:none;fill-opacity:0.737255;paint-order:normal;stroke:#000000;stroke-dasharray:none;stroke-linecap:round;stroke-linejoin:miter;stroke-width:0.3"
       d="M 78.58 66.0758 C 78.51 65.0458 78.45 64.0158 78.63 63.0258 C 78.81 62.0358 79.25 61.0958 79.57 60.7358 C 79.89 60.3758 80.1 60.5958 80.83 60.7158 C 81.56 60.8258 82.8 60.8258 83.46 60.8858 C 84.12 60.9458 84.21 61.0658 84.2 61.4858 C 84.19 61.9058 84.09 62.6358 84.42 63.2258 C 84.75 63.8158 85.51 64.2758 86.27 64.7258"
       id="wire-5" /><path
       style="display:inline;fill:none;fill-opacity:0.737255;paint-order:normal;stroke:#000000;stroke-dasharray:none;stroke-linecap:round;stroke-linejoin:miter;stroke-width:0.3"
       d="M 77.5 66.0158 C 77.5 64.9558 77.5 63.8858 77.59 62.7658 C 77.68 61.6458 77.86 60.4758 78.31 59.5858 C 78.75 58.6958 79.46 58.0958 80.66 58.0758 C 81.86 58.0558 83.54 58.6258 84.64 59.4458 C 85.75 60.2658 86.27 61.3358 86.57 62.3158 C 86.87 63.2958 86.93 64.1758 87 65.0658"
       id="wire-6" /><path
       d="M 111.42 73.8858 L 115.09 73.8858 L 115.09 70.9758 L 111.42 70.9758 Z"
       style="display:inline;fill:#000000;stroke-width:0.264583"
       id="bat-term-1" /><path
       d="M 142.87 76.6458 L 142.87 57.5958 L 115.09 57.5958 L 115.09 76.6458 Z"
       id="bat"
       style="fill:#92a5ab;fill-opacity:1" /><path
       id="bat-term-2"
       style="display:inline;fill:#000000;fill-opacity:1;stroke-linecap:round;stroke-width:0.3"
       d="M 111.9 62.7958 L 115.09 62.7958 L 115.09 60.1658 L 111.9 60.1658 Z" /><path
       d="M 85.1724 63.6655 L 91.787 63.6655 L 91.787 72.6614 L 85.1724 72.6614 Z"
       id="receiver" /><path
       id="tail"
       style="display:inline;fill:#b8e5f1;fill-opacity:0.737255;stroke:#000000;stroke-dasharray:none;stroke-linecap:round;stroke-width:0.263457"
       d="M 223.98 38.2658 L 252.22 38.2658 L 252.22 100.446 L 223.98 100.446 Z" /><path
       id="wing-1"
       style="display:inline;fill:#b9e5f2;fill-opacity:1;opacity:0.738044;stroke-dasharray:none;stroke-linecap:round;stroke-width:0.265"
       d="M 92.32 2.6458 L 133.59 2.6458 C 135.06 2.6458 136.24 3.8258 136.24 5.2958 L 136.24 134.676 C 136.24 136.146 135.06 137.326 133.59 137.326 L 92.32 137.326 C 90.85 137.326 89.67 136.146 89.67 134.676 L 89.67 5.2958 C 89.67 3.8258 90.85 2.6458 92.32 2.6458 Z" /><path
       id="wing-2"
       style="display:inline;fill:#000000;stroke-dasharray:none;stroke-width:0.264999"
       d="M 136.25 6.8958 L 136.25 132.836 L 135.99 132.836 L 135.99 6.8958 Z M 89.94 6.6258 L 89.94 133.366 L 89.68 133.366 L 89.68 6.6258 Z M 136.25 119.606 L 89.68 119.606 L 89.68 119.346 L 136.25 119.346 Z M 136.25 21.7058 L 89.68 21.7058 L 89.68 21.4458 L 136.25 21.4458 Z M 89.41 86.2658 L 136.24 86.2658 L 136.24 86.5258 L 89.41 86.5258 Z M 89.68 48.4358 L 136.25 48.4358 L 136.25 48.6958 L 89.68 48.6958 Z" /><path
       id="rudder"
       style="display:inline;fill:#ff0000;stroke:#000000;stroke-dasharray:none;stroke-linecap:round;stroke-width:0.263457"
       d="M 242.76 67.0858 L 253.49 67.0858 L 253.49 69.7358 L 242.76 69.7358 Z" /><ellipse
       style="fill:#eff15f;fill-opacity:1;stroke-width:0;stroke-linecap:round;stroke-linejoin:round"
       id="prop-2"
       cx="59.264999"
       cy="55.835798"
       rx="2.115000000000002"
       ry="12.569963999999999" /><ellipse
       style="fill:#eff15f;fill-opacity:1;stroke-width:0;stroke-linecap:round;stroke-linejoin:round"
       id="prop-1"
       cx="59.264999"
       cy="80.96580200000001"
       rx="2.115000000000002"
       ry="12.569963999999999" /><path
       d="M 79.1369 71.4375 L 61.4098 71.4375 L 61.4098 65.352 L 79.1369 65.352 Z"
       id="motor-2"
       style="fill:#4b381a;fill-opacity:1;stroke-width:0.999542" /><path
       d="M 61.41 68.0058 L 61.41 68.7958 L 55.32 68.7958 L 55.32 68.0058 L 56.04 68.0058 L 61.4 68.0058"
       id="motor-1" /><path
       id="tx-b"
       style="fill:#5556a9;stroke-linecap:round;stroke-linejoin:round;stroke-width:0.32"
       d="M 8.77715 54.59 L 38.9472 54.59 C 40.0472 54.59 40.9272 55.47 40.9272 56.57 L 40.9272 126.17 C 40.9272 127.27 40.0472 128.15 38.9472 128.15 L 8.77715 128.15 C 7.67715 128.15 6.79715 127.27 6.79715 126.17 L 6.79715 56.57 C 6.79715 55.47 7.67715 54.59 8.77715 54.59 Z" /><path
       d="M 13.1472 64.91 L 32.9872 64.91 L 32.9872 87.4 L 13.1472 87.4 Z"
       id="tx-2"
       style="stroke-width:0.264583" /><ellipse
       style="fill:#4d4d59;fill-opacity:1;stroke-width:0;stroke-linecap:round;stroke-linejoin:round"
       id="tx-1"
       cx="22.80884"
       cy="75.62724800000001"
       rx="3.3072920000000003"
       ry="3.0427073999999976" /><path
       d="M 20.8272 91.9 L 20.8272 97.72 L 13.1572 97.72 L 13.1572 91.9 Z"
       id="tx-3"
       style="fill:#4d4d59;fill-opacity:1;stroke-width:0.264583" /><path
       d="M 33.7872 91.9 L 33.7872 97.46 L 26.3772 97.46 L 26.3772 91.9 Z"
       id="tx-4"
       style="fill:#4d4d59;fill-opacity:1;stroke-width:0.264583" /><path
       id="tx-a"
       d="M 19.3672 13.05 C 18.2672 13.05 17.3872 13.93 17.3872 15.03 L 17.3872 15.04 C 17.3872 16.14 18.2672 17.02 19.3672 17.02 L 22.1472 17.02 L 22.1472 30.51 L 21.0872 30.51 L 21.0872 40.83 L 19.7672 40.83 L 19.7672 54.59 L 25.8572 54.59 L 25.8572 40.83 L 24.2672 40.83 L 24.2672 30.51 L 23.2072 30.51 L 23.2072 17.02 L 25.9872 17.02 C 27.0872 17.02 27.9672 16.14 27.9672 15.04 L 27.9672 15.03 C 27.9672 13.93 27.0872 13.05 25.9872 13.05 Z"
       style="fill:#4d4d59;fill-opacity:1;stroke-width:0.264583" /><ellipse
       style="opacity:1;fill:#bd6c1b;fill-opacity:1;stroke-width:0;stroke-linecap:round;stroke-linejoin:round"
       id="actuator"
       cx="240.03999"
       cy="68.402135"
       rx="3.917418700000013"
       ry="3.3663351999999946" /></g><a
     id="a5"
     xlink:href="__TRANSMITTER_URL_PLACEHOLDER__"><g
       id="transmitter-bb"
       style="display:inline"><text
         xml:space="preserve"
         style="font-style:normal;font-variant:normal;font-weight:normal;font-stretch:normal;font-size:1.97945px;font-family:sans-serif;-inkscape-font-specification:sans-serif;text-align:start;letter-spacing:0px;word-spacing:-1.436px;writing-mode:lr-tb;direction:ltr;text-anchor:start;fill:#eff15f;fill-opacity:1;stroke-width:0;stroke-linecap:round;stroke-linejoin:round"
         x="2.898361"
         y="55.859497"
         id="tx-t"
         transform="matrix(3.92085 0 0 3.92083 3.06917 -82.3713)"><tspan
           id="tspan1"
           style="-inkscape-font-specification:sans-serif;fill:#22cd3a;fill-opacity:1;font-family:sans-serif;font-size:1.97945px;font-stretch:normal;font-style:normal;font-variant:normal;font-weight:normal;stroke-width:0.0"
           x="2.898361"
           y="55.859497">пульт</tspan></text><rect
         style="fill:#30e36b;fill-opacity:1;opacity:0.54;stroke-linecap:round;stroke-linejoin:round;stroke-width:0.0"
         id="rect1"
         width="41.77734815331"
         height="119.62460617146"
         x="3.0691699999999997"
         y="11.118263751480008"
         ry="8.594935743888" /></g></a><a
     id="a2"
     xlink:href="__PROP_URL_PLACEHOLDER__"><g
       id="prop-bb"
       style="display:inline"><rect
         style="fill:#30e36b;fill-opacity:1;opacity:0.54;stroke-linecap:round;stroke-linejoin:round;stroke-width:0.0"
         id="rect2"
         width="8.1698875"
         height="51.889828"
         x="53.325081"
         y="42.71128200000001"
         ry="4.0" /><text
         xml:space="preserve"
         style="font-style:normal;font-variant:normal;font-weight:normal;font-stretch:normal;font-size:7.76111px;font-family:sans-serif;-inkscape-font-specification:sans-serif;text-align:start;letter-spacing:0px;word-spacing:-5.63034px;writing-mode:lr-tb;direction:ltr;text-anchor:start;display:inline;fill:#eff15f;fill-opacity:1;stroke-width:0;stroke-linecap:round;stroke-linejoin:round"
         x="47.977283"
         y="112.02555"
         id="prop-t"
         transform="translate(0, -10.7242)"><tspan
           id="tspan1-8"
           style="-inkscape-font-specification:sans-serif;fill:#22cd3a;fill-opacity:1;font-family:sans-serif;font-size:7.76113px;font-stretch:normal;font-style:normal;font-variant:normal;font-weight:normal;stroke-width:0.0"
           x="47.977283"
           y="112.02555">винт</tspan></text></g></a><a
     id="a3"
     xlink:href="__MOTOR_URL_PLACEHOLDER__"><g
       id="motor-bb"
       style="display:inline"><rect
         style="fill:#30e36b;fill-opacity:1;opacity:0.54;stroke-linecap:round;stroke-linejoin:round;stroke-width:0.0"
         id="rect3"
         width="16.270729"
         height="15.440791"
         x="62.32555399999999"
         y="60.77943199999999"
         ry="6.4000001" /><text
         xml:space="preserve"
         style="font-style:normal;font-variant:normal;font-weight:normal;font-stretch:normal;font-size:7.76111px;font-family:sans-serif;-inkscape-font-specification:sans-serif;text-align:start;letter-spacing:0px;word-spacing:-5.63034px;writing-mode:lr-tb;direction:ltr;text-anchor:start;display:inline;fill:#eff15f;fill-opacity:1;stroke-width:0;stroke-linecap:round;stroke-linejoin:round"
         x="58.976559"
         y="92.936737"
         id="motor-t"
         transform="translate(0, -10.7242)"><tspan
           id="tspan1-8-5"
           style="-inkscape-font-specification:sans-serif;fill:#22cd3a;fill-opacity:1;font-family:sans-serif;font-size:7.76111px;font-stretch:normal;font-style:normal;font-variant:normal;font-weight:normal;stroke-width:0.0"
           x="58.976559"
           y="92.936737">мотор</tspan></text></g></a><a
     id="a4"
     xlink:href="__RECEIVER_URL_PLACEHOLDER__"><g
       id="receiver-bb"
       style="display:inline"><rect
         style="fill:#30e36b;fill-opacity:1;opacity:0.54;stroke-linecap:round;stroke-linejoin:round;stroke-width:0.0"
         id="rect4"
         width="13.203216"
         height="17.385971"
         x="81.870224"
         y="59.358770000000014"
         ry="7.5" /><text
         xml:space="preserve"
         style="font-style:normal;font-variant:normal;font-weight:normal;font-stretch:normal;font-size:7.76111px;font-family:sans-serif;-inkscape-font-specification:sans-serif;text-align:start;letter-spacing:0px;word-spacing:-5.63034px;writing-mode:lr-tb;direction:ltr;text-anchor:start;display:inline;fill:#eff15f;fill-opacity:1;stroke-width:0;stroke-linecap:round;stroke-linejoin:round"
         x="69.80249"
         y="94.032822"
         id="receiver-t"
         transform="translate(0, -10.7242)"><tspan
           id="tspan1-8-5-4"
           style="-inkscape-font-specification:sans-serif;fill:#22cd3a;fill-opacity:1;font-family:sans-serif;font-size:7.76111px;font-stretch:normal;font-style:normal;font-variant:normal;font-weight:normal;stroke-width:0.0"
           x="69.80249"
           y="94.032822">приемник</tspan></text></g></a><a
     id="a1"
     xlink:href="__BATTERY_URL_PLACEHOLDER__"><g
       id="battery-bb"><rect
         style="fill:#30e36b;fill-opacity:1;opacity:0.54;stroke-linecap:round;stroke-linejoin:round;stroke-width:0.0"
         id="rect5"
         width="34.883465"
         height="23.458042"
         x="110.77789000000001"
         y="55.217603"
         ry="6.8000002" /><text
         xml:space="preserve"
         style="font-style:normal;font-variant:normal;font-weight:normal;font-stretch:normal;font-size:7.76111px;font-family:sans-serif;-inkscape-font-specification:sans-serif;text-align:start;letter-spacing:0px;word-spacing:-5.63034px;writing-mode:lr-tb;direction:ltr;text-anchor:start;display:inline;fill:#eff15f;fill-opacity:1;stroke-width:0;stroke-linecap:round;stroke-linejoin:round"
         x="114.74941"
         y="96.418938"
         id="battery-t"
         transform="translate(0, -10.7242)"><tspan
           id="tspan1-8-5-44"
           style="-inkscape-font-specification:sans-serif;fill:#22cd3a;fill-opacity:1;font-family:sans-serif;font-size:7.76111px;font-stretch:normal;font-style:normal;font-variant:normal;font-weight:normal;stroke-width:0.0"
           x="114.74941"
           y="96.418938">батарея</tspan></text></g></a><a
     id="a6"
     xlink:href="__AIRFRAME_URL_PLACEHOLDER__"><g
       id="fuselage-bb"><rect
         style="fill:#30e36b;fill-opacity:1;opacity:0.54;stroke-linecap:round;stroke-linejoin:round;stroke-width:0.0"
         id="rect6"
         width="65.558205"
         height="10.858078"
         x="152.3204"
         y="62.619046"
         ry="5.4000001" /><text
         xml:space="preserve"
         style="font-style:normal;font-variant:normal;font-weight:normal;font-stretch:normal;font-size:7.76111px;font-family:sans-serif;-inkscape-font-specification:sans-serif;text-align:start;letter-spacing:0px;word-spacing:-5.63034px;writing-mode:lr-tb;direction:ltr;text-anchor:start;display:inline;fill:#eff15f;fill-opacity:1;stroke-width:0;stroke-linecap:round;stroke-linejoin:round"
         x="171.48863"
         y="91.879166"
         id="fuselage-t"
         transform="translate(0, -10.7242)"><tspan
           id="tspan1-8-5-44-1"
           style="-inkscape-font-specification:sans-serif;fill:#22cd3a;fill-opacity:1;font-family:sans-serif;font-size:7.76111px;font-stretch:normal;font-style:normal;font-variant:normal;font-weight:normal;stroke-width:0.0"
           x="171.48863"
           y="91.879166">планер</tspan></text></g></a><a
     id="a7"
     xlink:href="__ACTUATOR_URL_PLACEHOLDER__"><g
       id="actuator-bb"
       style="display:inline"><rect
         style="fill:#30e36b;fill-opacity:1;opacity:0.54;stroke-linecap:round;stroke-linejoin:round;stroke-width:0.0"
         id="rect7"
         width="21.15099"
         height="10.363136"
         x="235.25168"
         y="63.304265"
         ry="5.0" /><text
         xml:space="preserve"
         style="font-style:normal;font-variant:normal;font-weight:normal;font-stretch:normal;font-size:7.76111px;font-family:sans-serif;-inkscape-font-specification:sans-serif;text-align:start;letter-spacing:0px;word-spacing:-5.63034px;writing-mode:lr-tb;direction:ltr;text-anchor:start;display:inline;fill:#eff15f;fill-opacity:1;stroke-width:0;stroke-linecap:round;stroke-linejoin:round"
         x="227.36208"
         y="90.648323"
         id="actuator-t"
         transform="translate(0, -10.7242)"><tspan
           id="tspan1-8-5-44-1-1"
           style="-inkscape-font-specification:sans-serif;fill:#22cd3a;fill-opacity:1;font-family:sans-serif;font-size:7.76111px;font-stretch:normal;font-style:normal;font-variant:normal;font-weight:normal;stroke-width:0.0"
           x="227.36208"
           y="90.648323">актуатор</tspan></text></g></a></svg>
